<?xml version="1.0" encoding="utf-8"?>
<!-- Generator: Adobe Illustrator 17.0.0, SVG Export Plug-In . SVG Version: 6.00 Build 0)  -->
<!DOCTYPE svg PUBLIC "-//W3C//DTD SVG 1.1//EN" "http://www.w3.org/Graphics/SVG/1.1/DTD/svg11.dtd">
<svg version="1.1" id="Layer_2" xmlns="http://www.w3.org/2000/svg" xmlns:xlink="http://www.w3.org/1999/xlink" x="0px" y="0px"
	 width="86.333px" height="119.667px" viewBox="0 0 86.333 119.667" enable-background="new 0 0 86.333 119.667"
	 xml:space="preserve">
<path fill="#151515" d="M37.144,2.625c1.382-0.937,3.116-0.616,4.66-0.436l-0.508,0.045C39.913,2.36,38.526,2.515,37.144,2.625z"/>
<path fill="#BEBEBE" d="M33.791,3.617c1.054-0.531,2.19-0.882,3.353-0.992c1.382-0.11,2.769-0.266,4.151-0.391
	c0.128,2.019,0.171,4.048,0.119,6.072c-0.527,2.395-0.347,4.859,0.256,7.219c0.166-0.291,0.499-0.877,0.665-1.172
	c0.128,0.566,0.271,1.127,0.408,1.693c0.18-0.751,0.356-1.503,0.537-2.249c0.389,2.269,0.76,4.544,1.244,6.793
	c0.109,0.516,0.171,1.042,0.18,1.568c-0.522,0.506-0.546,1.939,0.461,1.393l0.347-0.125c-0.066,0.316-0.199,0.942-0.271,1.252
	c-0.266,0.992-0.475,2.345-1.653,2.525c-1.515,0.651-3.092-0.065-4.099-1.318c0.052-0.23,0.157-0.701,0.214-0.932
	c0.446,0.235,0.898,0.476,1.354,0.711c-1.225-3.632-1.919-7.544-4.052-10.761c0.266,1.573,0.589,3.136,0.883,4.699
	c-0.361-0.391-0.722-0.787-1.073-1.187c-0.926-1.292-1.316-2.901-1.871-4.388c-0.931-3.021-2.228-5.886-3.453-8.777
	c0.47-0.276,0.936-0.551,1.411-0.817c0.029,2.755,1.092,5.31,2.589,7.519c-0.446-1.558-1.026-3.071-1.401-4.649
	c-0.37-1.282,0.304-2.53,0.66-3.722l-0.266,0.045C34.313,3.622,33.966,3.617,33.791,3.617z"/>
<path fill="#868686" d="M41.295,2.235l0.508-0.045c0.784,3.086,0.95,6.297,1.529,9.428c0.437,2.986,1.444,5.916,1.192,8.972
	c-0.484-2.249-0.855-4.524-1.244-6.793c-0.18,0.746-0.356,1.498-0.537,2.249c-0.138-0.566-0.28-1.127-0.408-1.693
	c-0.456-1.989-0.693-4.023-0.921-6.047C41.466,6.282,41.424,4.253,41.295,2.235z"/>
<path fill="#151515" d="M31.492,5.25c0.594-0.746,1.225-1.808,2.299-1.633c0.176,0,0.522,0.005,0.693,0.01
	c-0.527,0.261-1.059,0.531-1.582,0.807C32.428,4.699,31.962,4.975,31.492,5.25z"/>
<path fill="#FDFEFB" d="M32.903,4.434c0.522-0.276,1.054-0.546,1.582-0.807l0.266-0.045c-0.356,1.192-1.031,2.44-0.66,3.722
	c0.375,1.578,0.955,3.091,1.401,4.649C33.995,9.744,32.931,7.189,32.903,4.434z"/>
<path fill="#D9D9D9" d="M36.679,5.185c0.912-0.266,1.515,0.681,2.175,1.157c-1.458,0.531-3.016,0.636-4.474,0.03
	C35.111,5.917,35.819,5.336,36.679,5.185z"/>
<path fill="#ECECEC" d="M41.671,15.525c-0.603-2.36-0.784-4.824-0.256-7.219c0.228,2.024,0.465,4.058,0.921,6.047
	C42.169,14.648,41.837,15.235,41.671,15.525z"/>
<path fill="#7D7D7D" d="M54.771,9.789c0.926-0.576,1.857-1.373,2.988-1.388c2.185,0.471,2.764,3.111,4.166,4.624
	c-0.114,0.511-0.228,1.022-0.337,1.533c-0.313-0.797-0.494-1.803-1.306-2.209C58.537,11.282,56.595,10.671,54.771,9.789z"/>
<path fill="#BFBFBF" d="M54.562,9.694l0.209,0.095c1.824,0.882,3.767,1.493,5.51,2.56c0.812,0.406,0.993,1.413,1.306,2.209
	c-0.01,0.371-0.028,1.117-0.038,1.493c-0.209,0.07-0.622,0.22-0.826,0.291c0.062-0.331,0.19-0.997,0.256-1.328
	c-1.268,3.316-1.985,6.848-3.391,10.109c-0.451,0.807-0.978,1.563-1.506,2.314c-1.582-0.14-3.144-0.441-4.721-0.621
	c0.028-0.366,0.09-1.092,0.119-1.458c0.418-4.679,0.883-9.523,2.926-13.771c-0.708,0.466-1.42,0.922-2.137,1.368
	c0.636-0.947,1.297-1.869,1.962-2.795C54.31,10.045,54.476,9.814,54.562,9.694z"/>
<path fill="#89898A" d="M52.016,12.028c-0.043-1.277,1.401-1.378,2.213-1.869c-0.665,0.927-1.325,1.849-1.962,2.795
	c0.717-0.446,1.43-0.902,2.137-1.368c-2.042,4.248-2.508,9.092-2.926,13.771c-0.085-0.03-0.261-0.09-0.351-0.12l-0.185-0.06
	C51.294,20.795,51.541,16.397,52.016,12.028z"/>
<path fill="#979798" d="M37.006,14.904c2.133,3.216,2.826,7.129,4.052,10.761c-0.456-0.235-0.907-0.476-1.354-0.711
	c-0.651-0.351-1.297-0.701-1.952-1.037c-0.128-0.486-0.256-0.967-0.385-1.448c0.133-0.11,0.399-0.331,0.537-0.441
	c0.888-0.511,0.095-2.129-0.812-1.588l-0.29,0.105c-0.024-0.711-0.009-1.418,0.014-2.129c0.351,0.401,0.712,0.797,1.073,1.187
	C37.595,18.04,37.272,16.477,37.006,14.904z"/>
<path fill="#111213" d="M57.587,25.124c1.406-3.261,2.123-6.793,3.391-10.109c-0.066,0.331-0.195,0.997-0.256,1.328
	c-0.252,1.207-0.48,2.42-0.636,3.647c-0.138,1.663-0.119,3.346-0.404,4.995c-0.29,0.576-0.589,1.147-0.888,1.718
	C58.39,26.181,57.982,25.655,57.587,25.124z"/>
<path fill="#D7E2A9" d="M61.976,15.921c0.955-0.676,2.095-1.177,3.168-0.431c-0.161,0.015-0.489,0.045-0.651,0.065
	C63.653,15.66,62.812,15.776,61.976,15.921z"/>
<path fill="#7F8247" d="M64.494,15.555c0.161-0.02,0.489-0.05,0.651-0.065c1.373,1.157,1.838,3.036,2.893,4.464
	c-0.608-0.24-1.221-0.471-1.838-0.681c-0.047-0.431-0.104-0.867-0.176-1.292C65.567,17.133,65.03,16.342,64.494,15.555z"/>
<path fill="#DDD732" d="M61.549,16.051l0.427-0.13c0.836-0.145,1.677-0.26,2.517-0.366c0.537,0.787,1.073,1.578,1.529,2.425
	c-0.347,0.321-0.698,0.646-1.045,0.972c-0.199-0.496-0.394-0.987-0.579-1.483l-0.161-0.486c-1.529,0.055-2.764,0.927-3.543,2.294
	c0.883-0.175,1.757-0.401,2.65-0.536c-0.774,0.696-1.529,1.403-2.275,2.129c-0.328-0.296-0.655-0.586-0.983-0.882
	c0.157-1.227,0.385-2.44,0.636-3.647C60.927,16.272,61.34,16.121,61.549,16.051z"/>
<path fill="#A5C65B" d="M67.41,16.021c1.031,0.07,2.403-0.511,3.159,0.506c1.05,0.947,0.356,2.535,0.204,3.747
	c1.235,0.696,2.536,1.318,3.629,2.259c0.489,0.606-0.033,1.398-0.114,2.064c-0.893-0.686-1.791-1.358-2.712-1.999
	c-0.123,0.18-0.37,0.541-0.489,0.721c1.89,1.292,1.525,3.742,1.743,5.791c0.19,1.558-1.14,3.226-2.698,2.946
	c-1.287,0.105-2.19-0.972-3.087-1.763c0.38-0.591,0.803-1.147,1.24-1.698c0.489,0.451,0.964,0.932,1.515,1.297
	c0.898,0.326,1.491-0.581,2.019-1.177c0.171-1.027,0.47-2.094,0.266-3.141c-0.228-1.338-1.795-1.338-2.75-1.798
	c-0.195,0.626-0.389,1.252-0.579,1.884c-0.086,0.26-0.252,0.787-0.337,1.052c-0.218-0.16-0.66-0.476-0.883-0.631
	c0.209-0.716,0.413-1.438,0.617-2.154c-0.456,0.731-0.907,1.473-1.373,2.199l-0.299-0.311c-0.332-0.636-0.613-1.302-0.888-1.969
	c-0.166-0.03-0.499-0.085-0.665-0.115l-0.337-0.045c-0.009-0.601-0.024-1.202-0.029-1.803c1.401,0.626,2.902,1.849,4.422,0.842
	c-0.598-0.286-1.202-0.561-1.8-0.842c0.356-0.321,0.712-0.641,1.069-0.967c1.183-0.862,2.028-2.059,1.786-3.652
	C69.153,16.863,68.27,16.472,67.41,16.021z"/>
<path fill="#FFFFFF" d="M60.694,19.277c0.779-1.368,2.014-2.239,3.543-2.294l0.161,0.486c0.104,0.531,0.209,1.062,0.304,1.593
	c-0.451-0.115-0.907-0.22-1.358-0.321C62.451,18.877,61.577,19.102,60.694,19.277z"/>
<path fill="#7E7E7E" d="M20.391,17.294c2.441-0.005,4.954,0.266,7.153,1.463c1.059,1.668,1.544,3.727,3.011,5.105
	c0.959,1.152,1.905,2.324,2.954,3.392c-0.133,0.185-0.399,0.551-0.532,0.736c-0.731-1.017-1.572-1.939-2.508-2.735
	c-2.009-1.558-2.484-4.323-3.605-6.528c-1.724,1.027-3.382,2.199-4.869,3.587c-0.532,0.456-1.097,0.867-1.662,1.277
	C19.536,21.542,20.363,19.398,20.391,17.294z"/>
<path fill="#E7EECA" d="M64.399,17.469c0.185,0.496,0.38,0.987,0.579,1.483c0.347-0.326,0.698-0.651,1.045-0.972
	c0.071,0.426,0.128,0.862,0.176,1.292c0.028,0.26,0.076,0.776,0.1,1.032c0.651,0.2,1.301,0.406,1.952,0.611
	c-0.356,0.326-0.712,0.646-1.069,0.967c0.598,0.281,1.202,0.556,1.8,0.842c-1.52,1.007-3.021-0.215-4.422-0.842
	c0.005,0.601,0.019,1.202,0.029,1.803c-0.418,0.065-0.831,0.155-1.24,0.266c-1.354-0.536-2.665,0.045-3.667,1.032
	c0.285-1.648,0.266-3.331,0.404-4.995c0.328,0.296,0.655,0.586,0.983,0.882c0.746-0.726,1.501-1.433,2.275-2.129
	c0.451,0.1,0.907,0.205,1.358,0.321C64.608,18.531,64.503,18,64.399,17.469z"/>
<path fill="#A59553" d="M29.92,19.212c1.107-1.884,3.591-0.721,5.291-0.736c-1.111,0.06-2.228,0.11-3.334,0.266l-0.147,0.371
	c-0.185,0.486-0.356,0.982-0.522,1.478c0.793,0.205,1.667,0.546,2.427,0.02c0.993-0.651,2.133-0.536,3.168-0.065
	c-1.33,0.411-2.536,1.212-3.268,2.48c0.152,0.145,0.456,0.431,0.603,0.571l0.256,0.25c-0.328,0.436-0.655,0.877-0.983,1.313
	c-0.746-1.262-0.684-3.061-2.057-3.842C30.665,20.775,29.554,20.344,29.92,19.212z"/>
<path fill="#8E9D5F" d="M31.877,18.741c1.107-0.155,2.223-0.205,3.334-0.266c-0.674,0.536-1.335,1.132-2.147,1.418
	c-0.465-0.22-0.898-0.511-1.335-0.781L31.877,18.741z"/>
<path fill="#BEBEBE" d="M21.997,22.313c1.487-1.388,3.144-2.56,4.869-3.587c1.121,2.204,1.596,4.97,3.605,6.528
	c0.936,0.797,1.776,1.718,2.508,2.735c0.351,0.496,0.689,1.002,1.012,1.523c0.38,0.641,0.736,1.297,1.092,1.949
	c-0.475,0.301-0.945,0.616-1.411,0.937c-3.273,0.07-5.002-3.832-8.322-3.697c-0.641-0.05-1.287-0.07-1.928-0.085
	c0.404-0.311,0.798-0.631,1.202-0.947c-0.351-0.536-0.703-1.077-1.054-1.613c-0.584-0.977-1.216-1.929-1.938-2.8
	C21.726,23.02,21.907,22.549,21.997,22.313z"/>
<path fill="#646857" d="M37.092,20.44c0.907-0.541,1.7,1.077,0.812,1.588C37.534,21.552,37.263,21.026,37.092,20.44z"/>
<path fill="#B6C956" d="M62.622,19.904c1.012,0.441,2.004,0.927,2.954,1.503c-0.822,0.165-1.719,0.486-2.475-0.075
	c-0.404,0.195-0.803,0.396-1.206,0.596C62.133,21.251,62.375,20.58,62.622,19.904z"/>
<path fill="#E7EBCA" d="M36.802,20.545l0.29-0.105c0.171,0.586,0.442,1.112,0.812,1.588c-0.138,0.11-0.404,0.331-0.537,0.441
	c-1.045,0.466-2.133,0.817-3.23,1.127c-0.147-0.14-0.451-0.426-0.603-0.571C34.266,21.757,35.472,20.956,36.802,20.545z"/>
<path fill="#CDDB9F" d="M31.354,21.316c1.373,0.782,1.311,2.58,2.057,3.842c0.223,0.426,0.451,0.852,0.674,1.282
	c-0.142,0.2-0.432,0.606-0.575,0.812c-1.05-1.067-1.995-2.239-2.954-3.392C30.832,23.015,31.093,22.168,31.354,21.316z"/>
<path fill="#FDFEFB" d="M69.581,21.912c0.627-0.421,1.406-0.391,2.109-0.541c-0.684,0.927-1.506,1.743-2.536,2.214
	C69.262,23.02,69.405,22.463,69.581,21.912z"/>
<path fill="#868686" d="M45.167,23.551c-1.007,0.546-0.983-0.887-0.461-1.393C44.82,22.504,45.048,23.2,45.167,23.551z"/>
<path fill="#E99703" d="M34.137,23.596c1.097-0.311,2.185-0.661,3.23-1.127c0.128,0.481,0.256,0.962,0.385,1.448
	c0.185,0.696,0.38,1.393,0.57,2.094c-0.812-0.897-1.634-1.783-2.527-2.59c0.679,1.433,1.525,2.79,2.688,3.837
	c-0.489,0-0.978,0-1.463-0.005c-0.665-1.052-1.392-2.059-2.232-2.966c-0.1-0.11-0.299-0.331-0.394-0.441L34.137,23.596z"/>
<path fill="#111215" d="M35.795,23.42c0.893,0.807,1.715,1.693,2.527,2.59c-0.19-0.701-0.385-1.398-0.57-2.094
	c0.655,0.336,1.301,0.686,1.952,1.037c-0.057,0.23-0.161,0.701-0.214,0.932c-0.19,0.501-0.38,0.997-0.579,1.488l-0.427-0.115
	C37.32,26.211,36.474,24.853,35.795,23.42z"/>
<path fill="#A59553" d="M59.682,24.983c1.002-0.987,2.313-1.568,3.667-1.032c-1.382,1.047-3.178,1.899-3.719,3.752
	c0.038,0.391,0.114,1.172,0.157,1.558c0.784,0.386,1.558,0.781,2.356,1.142c-2.475,0-4.769-1.127-7.22-1.328
	c-1.61-0.15-3.225-0.185-4.84-0.195c0.893-0.175,1.772-0.426,2.646-0.691c-1.995-0.22-3.999-0.351-6.004-0.316
	c2.983-1.378,6.427-0.837,9.348,0.476c0-0.306,0.005-0.611,0.009-0.912c0.527-0.751,1.054-1.508,1.506-2.314
	c0.394,0.531,0.803,1.057,1.206,1.578C59.093,26.131,59.392,25.559,59.682,24.983z"/>
<path fill="#141415" d="M63.349,23.951c0.408-0.11,0.822-0.2,1.24-0.266l0.337,0.045c-0.75,1.959-1.477,3.948-2.703,5.641
	c-0.85-0.581-1.715-1.142-2.593-1.668C60.171,25.85,61.967,24.998,63.349,23.951z"/>
<path fill="#FDFEFB" d="M64.926,23.731c0.166,0.03,0.499,0.085,0.665,0.115c0.275,0.666,0.556,1.333,0.888,1.969
	c-0.522,0.21-1.045,0.421-1.572,0.631C64.964,25.539,64.959,24.633,64.926,23.731z"/>
<path fill="#8F6821" d="M33.411,25.159c0.328-0.436,0.655-0.877,0.983-1.313c0.095,0.11,0.294,0.331,0.394,0.441
	c0.48,1.182,0.917,2.58,2.232,2.966c0.484,0.005,0.974,0.005,1.463,0.005l0.427,0.115l0.356,0.11
	c-1.444,0.721-2.959,1.267-4.489,1.743c0-0.982-0.176-1.959-0.693-2.785C33.862,26.01,33.634,25.584,33.411,25.159z"/>
<path fill="#C6AE57" d="M62.223,29.372c1.225-1.693,1.952-3.682,2.703-5.641c0.033,0.902,0.038,1.808-0.019,2.715
	c-0.579,1.363-1.13,2.75-1.325,4.243c1.111-0.666,2.18-1.413,3.268-2.119l0.404-0.205c-0.66,0.862-1.311,1.723-1.966,2.59
	c0.522,0.711,1.045,1.428,1.548,2.159c-1.501-1.022-2.978-2.124-4.693-2.71c-0.798-0.361-1.572-0.756-2.356-1.142
	c-0.043-0.386-0.119-1.167-0.157-1.558C60.509,28.23,61.373,28.791,62.223,29.372z"/>
<path fill="#FDFEFB" d="M66.778,26.125c0.465-0.726,0.917-1.468,1.373-2.199c-0.204,0.716-0.408,1.438-0.617,2.154
	c0.223,0.155,0.665,0.471,0.883,0.631c0.086-0.266,0.252-0.792,0.337-1.052c0.826-0.476,1.772-0.531,2.688-0.576
	c-0.375,0.291-0.755,0.581-1.13,0.872c-0.147,0.666-0.285,1.338-0.451,2.004c-0.066,0.21-0.209,0.631-0.28,0.842
	c0.746-0.035,1.491-0.06,2.237-0.085c-0.527,0.596-1.121,1.503-2.019,1.177c-0.551-0.366-1.026-0.847-1.515-1.297
	c0.242-0.316,0.731-0.942,0.974-1.257c-0.674,0.321-1.344,0.666-2.004,1.027L66.85,28.57c0.309-0.516,0.613-1.037,0.917-1.558
	C67.429,26.722,67.097,26.431,66.778,26.125z"/>
<path fill="#E0DA15" d="M69.334,23.776c0.955,0.461,2.522,0.461,2.75,1.798c0.204,1.047-0.095,2.114-0.266,3.141
	c-0.746,0.025-1.491,0.05-2.237,0.085c0.071-0.21,0.214-0.631,0.28-0.842c0.375-0.11,1.121-0.331,1.496-0.446
	c0.038-0.807,0.062-1.618,0.085-2.43c-0.917,0.045-1.862,0.1-2.688,0.576C68.944,25.028,69.139,24.402,69.334,23.776z"/>
<path fill="#151515" d="M37.021,27.253c-1.316-0.386-1.753-1.783-2.232-2.966C35.629,25.194,36.356,26.201,37.021,27.253z"/>
<path fill="#9C8972" d="M43.59,27.203c1.178-0.18,1.387-1.533,1.653-2.525c1.406,0.331,2.85,0.311,4.28,0.441l-0.404,0.13
	c-0.826,0.26-1.643,0.556-2.437,0.902c-0.195-0.646-0.594-0.882-1.197-0.701c-0.636,0.591,0.499,0.912,0.921,0.907
	c0.446,0.11,0.898,0.22,1.344,0.341c-0.456,0.456-0.931,0.902-1.415,1.333c-1.7,0.877-3.572,1.217-5.41,1.603
	c-0.223-0.541-0.451-1.077-0.689-1.608c-0.318-0.195-0.641-0.376-0.969-0.541l-0.356-0.11c0.199-0.491,0.389-0.987,0.579-1.488
	C40.497,27.137,42.074,27.854,43.59,27.203z"/>
<path fill="#C6AC8E" d="M49.118,25.249c0.66-0.065,1.354-0.17,2.009-0.01c0.09,0.03,0.266,0.09,0.351,0.12
	c-0.028,0.366-0.09,1.092-0.119,1.458c-1.206,0.005-2.413,0.03-3.61-0.12c-0.446-0.12-0.898-0.23-1.344-0.341l0.275-0.205
	C47.475,25.805,48.292,25.509,49.118,25.249z"/>
<path fill="#111213" d="M45.485,25.449c0.603-0.18,1.002,0.055,1.197,0.701l-0.275,0.205C45.984,26.361,44.848,26.04,45.485,25.449z
	"/>
<path fill="#D3E18F" d="M70.312,25.955c0.375-0.291,0.755-0.581,1.13-0.872c-0.024,0.812-0.048,1.623-0.085,2.43
	c-0.375,0.115-1.121,0.336-1.496,0.446C70.027,27.293,70.165,26.621,70.312,25.955z"/>
<path fill="#111213" d="M23.336,25.705l0.233,0.351c0.351,0.536,0.703,1.077,1.054,1.613c-0.404,0.316-0.798,0.636-1.202,0.947
	c-0.456,0.01-0.907-0.01-1.363-0.03c-0.171,0.23-0.518,0.691-0.693,0.927c1.458,1.568,3.016,3.026,4.512,4.549
	c0.38-0.331,0.76-0.661,1.14-0.997c0.342,0.401,0.689,0.802,1.026,1.207c-0.033,0.782-0.043,1.563-0.047,2.345
	c-2.674-1.989-5.154-4.253-7.438-6.723c0.242-0.431,0.48-0.862,0.717-1.292l0.157-0.281c0.955,0.005,1.881-0.225,2.76-0.606
	C23.883,27.052,23.583,26.391,23.336,25.705z"/>
<path fill="#111215" d="M64.907,26.446c0.527-0.21,1.05-0.421,1.572-0.631l0.299,0.311c0.318,0.306,0.651,0.596,0.988,0.887
	c-0.304,0.521-0.608,1.042-0.917,1.558c-1.088,0.706-2.156,1.453-3.268,2.119C63.776,29.196,64.327,27.809,64.907,26.446z"/>
<path fill="#111213" d="M34.085,26.441c0.518,0.827,0.693,1.803,0.693,2.785c-0.195,0.07-0.589,0.215-0.788,0.286
	c-0.323-0.521-0.66-1.027-1.012-1.523c0.133-0.185,0.399-0.551,0.532-0.736C33.653,27.047,33.943,26.641,34.085,26.441z"/>
<path fill="#151515" d="M47.75,26.697c1.197,0.15,2.403,0.125,3.61,0.12c1.577,0.18,3.14,0.481,4.721,0.621
	c-0.005,0.301-0.009,0.606-0.009,0.912c-2.921-1.313-6.365-1.854-9.348-0.476l-0.389,0.155C46.82,27.598,47.295,27.152,47.75,26.697
	z"/>
<path fill="#EEC37B" d="M39.267,27.483c0.328,0.165,0.651,0.346,0.969,0.541c-1.553,1.408-3.363,2.42-5.154,3.437
	c-0.356-0.651-0.712-1.308-1.092-1.949c0.199-0.07,0.594-0.215,0.788-0.286C36.308,28.751,37.823,28.204,39.267,27.483z"/>
<path fill="#151515" d="M67.253,28.365c0.66-0.361,1.33-0.706,2.004-1.027c-0.242,0.316-0.731,0.942-0.974,1.257
	c-0.437,0.551-0.86,1.107-1.24,1.698c-0.418,0.827,0.071,1.728,0.57,2.37c1.107,1.383,2.636,2.42,3.401,4.088
	c0.589,1.338,1.876,2.074,2.774,3.146c-1.325-0.907-2.65-1.824-3.98-2.725c-1.259-0.797-2.627-1.368-4.004-1.884
	c1.639,0.466,3.225,1.117,4.864,1.578c-1.938-2.5-4.883-3.767-7.709-4.769c-8.464-2.475-17.617,0.296-24.732,5.375
	c-7.054,4.408-12.117,12.599-12.112,21.376c-0.161-0.306-0.484-0.927-0.646-1.237c-0.85-3.402-0.769-6.948-0.432-10.42
	c0.95-1.758,1.909-3.517,2.627-5.4c2.783-4.378,6.602-8.111,11.252-10.144c3.548-1.553,7.343-2.45,11.167-2.765
	c1.615,0.01,3.23,0.045,4.84,0.195c2.451,0.2,4.745,1.328,7.22,1.328c1.715,0.586,3.192,1.688,4.693,2.71
	c-0.503-0.731-1.026-1.448-1.548-2.159C65.942,30.088,66.593,29.226,67.253,28.365z"/>
<path fill="#7F8247" d="M35.083,31.461c1.791-1.017,3.6-2.029,5.154-3.437c0.237,0.531,0.465,1.067,0.689,1.608
	c-5.5,2.199-11.205,6.052-13.262,12.158c-0.717,1.884-1.677,3.642-2.627,5.4c-0.09-0.616-0.185-1.232-0.275-1.849l-0.024-0.431
	c-0.01-0.245-0.024-0.746-0.033-0.997c0.033-1.343,0.788-2.45,1.539-3.462c0.641-0.902,1.221-1.854,1.814-2.79
	c0.684-1.187,1.681-2.099,2.736-2.901c-0.076-0.441-0.147-0.887-0.218-1.328c0.299,0.21,0.598,0.416,0.898,0.616
	c0.722-0.566,1.449-1.127,2.199-1.653C34.137,32.077,34.608,31.761,35.083,31.461z"/>
<path fill="#BEBFC0" d="M46.335,28.029l0.389-0.155c2.004-0.035,4.009,0.095,6.004,0.316c-0.874,0.266-1.753,0.516-2.646,0.691
	c-3.824,0.316-7.619,1.212-11.167,2.765c-4.65,2.034-8.469,5.766-11.252,10.144c2.057-6.107,7.761-9.959,13.262-12.158
	C42.763,29.246,44.635,28.906,46.335,28.029z"/>
<path fill="#EEE88B" d="M18.055,28.7c1.054-0.301,2.152-0.16,3.22-0.1c-0.237,0.431-0.475,0.862-0.717,1.292
	c-0.342,0.175-0.684,0.356-1.021,0.546c-0.541,0.316-1.073,0.661-1.577,1.042c-0.242-0.145-0.722-0.426-0.964-0.566
	C17.323,30.163,17.622,29.392,18.055,28.7z"/>
<path fill="#E8EC83" d="M22.059,28.585c0.456,0.02,0.907,0.04,1.363,0.03c0.641,0.015,1.287,0.035,1.928,0.085
	c0.499,0.621,0.997,1.242,1.51,1.854c-0.503-0.105-1.007-0.21-1.515-0.316c0.299,0.661,0.594,1.328,0.955,1.959
	c0.18,0.215,0.537,0.651,0.717,0.867c-0.38,0.336-0.76,0.666-1.14,0.997c-1.496-1.523-3.054-2.981-4.512-4.549
	C21.541,29.277,21.888,28.816,22.059,28.585z"/>
<path fill="#959495" d="M25.35,28.7c3.32-0.135,5.049,3.767,8.322,3.697c-0.75,0.526-1.477,1.087-2.199,1.653
	c-0.299-0.2-0.598-0.406-0.898-0.616c-0.812-0.591-1.586-1.302-2.565-1.568c-0.389-0.436-0.774-0.872-1.149-1.313
	C26.348,29.943,25.849,29.322,25.35,28.7z"/>
<path fill="#BEBEBE" d="M19.536,30.439c0.337-0.19,0.679-0.371,1.021-0.546c2.285,2.47,4.764,4.734,7.438,6.723
	c0.005-0.781,0.014-1.563,0.047-2.345c0.855-0.235,1.7-0.516,2.532-0.837c0.071,0.441,0.142,0.887,0.218,1.328
	c-1.054,0.802-2.052,1.713-2.736,2.901c-1.297,0.276-2.66,0.907-3.98,0.496c-1.458-0.721-2.646-1.909-3.928-2.901
	c-0.081,0.326-0.247,0.982-0.328,1.313c-0.95-0.636-1.9-1.272-2.85-1.909C17.907,33.309,18.781,31.912,19.536,30.439z"/>
<path fill="#CE9126" d="M25.346,30.238c0.508,0.105,1.012,0.21,1.515,0.316c0.375,0.441,0.76,0.877,1.149,1.313
	c-0.575,0.095-1.14,0.21-1.71,0.331C25.939,31.566,25.645,30.9,25.346,30.238z"/>
<path fill="#464646" d="M51.303,30.133c0.385-0.516,1.482-0.491,1.567,0.281C52.8,31.481,50.724,31.215,51.303,30.133z"/>
<path fill="#595959" d="M55.288,30.103c0.242-0.576,1.396-0.401,1.225,0.311C56.262,30.98,55.113,30.814,55.288,30.103z"/>
<path fill="#F3F5EA" d="M68.26,30.304c0.399-0.461,1.415,0.09,1.097,0.701C68.949,31.486,67.918,30.94,68.26,30.304z"/>
<path fill="#BBBBBA" d="M17.96,31.481c0.503-0.381,1.035-0.726,1.577-1.042c-0.755,1.473-1.629,2.871-2.565,4.223
	c0.95,0.636,1.9,1.272,2.85,1.909c0.081-0.331,0.247-0.987,0.328-1.313c1.282,0.992,2.47,2.179,3.928,2.901
	c1.32,0.411,2.684-0.22,3.98-0.496c-0.594,0.937-1.173,1.889-1.814,2.79c-3.719-1.788-7.462-3.532-11.138-5.42
	c0.081-0.125,0.237-0.371,0.313-0.491C16.321,33.575,17.128,32.513,17.96,31.481z"/>
<path fill="#656565" d="M44.815,31.461c1.102-0.651,2.342-0.982,3.61-0.902C47.385,31.421,46.107,31.681,44.815,31.461z"/>
<path fill="#151515" d="M4.565,33.174c0.513-1.859,2.323-2.319,3.947-2.239c-1.61,0.471-2.983,1.463-3.99,2.865
	C4.532,33.64,4.555,33.329,4.565,33.174z"/>
<path fill="#BFBFBF" d="M8.512,30.935c2.294,1.282,4.598,2.68,7.201,3.096c-0.071,0.13-0.218,0.386-0.294,0.511
	c-0.076,0.12-0.233,0.366-0.313,0.491c3.676,1.889,7.419,3.632,11.138,5.42c-0.75,1.012-1.506,2.119-1.539,3.462
	c-1.629-0.506-3.268-0.962-4.949-1.227c0.636-0.125,1.268-0.276,1.905-0.426c-2.788-1.037-5.747-1.568-8.706-1.262
	c-1.691-0.356-3.368-0.776-5.04-1.212c0.404-0.125,1.211-0.366,1.615-0.486c-1.905-0.666-3.814-1.297-5.743-1.879
	c0.024-1.037,0.218-2.054,0.427-3.066c0.033-0.431,0.152-0.827,0.351-1.182C4.555,33.329,4.532,33.64,4.522,33.8
	C5.529,32.398,6.902,31.406,8.512,30.935z"/>
<path fill="#ABABAB" d="M38.227,37.472c7.115-5.08,16.268-7.85,24.732-5.375c2.826,1.002,5.771,2.269,7.709,4.769
	c-1.639-0.461-3.225-1.112-4.864-1.578c-0.665-0.205-1.335-0.401-2.004-0.576c0.176-0.135,0.532-0.411,0.712-0.546
	c-4.341-1.157-9.044-2.139-13.414-0.591c-0.698,0.14-1.396,0.276-2.095,0.406c-2.422,0.175-5.149,0.571-6.688,2.795
	c-0.109,0.115-0.332,0.336-0.446,0.451c-0.161,0.065-0.484,0.19-0.646,0.25c-0.18,0.065-0.537,0.19-0.717,0.25
	c-2.641,0.561-4.807,2.415-6.161,4.824c-0.693,0.837-1.411,1.658-2.104,2.5c-1.263,1.227-2.19,2.805-2.199,4.664
	c-0.323,1.468-0.774,2.891-1.23,4.313c-0.741,1.713-0.731,3.602-0.209,5.38c0.123-1.338,0.214-2.68,0.223-4.028
	c0.218,1.267,0.518,2.52,0.75,3.787c-0.176,0.947-0.608,1.813-0.997,2.68c-0.784-0.376-1.577-0.726-2.37-1.077
	c-0.043-0.641-0.109-1.282-0.095-1.924C26.11,50.071,31.174,41.881,38.227,37.472z"/>
<path fill="#6D5935" d="M28.01,31.867c0.978,0.266,1.753,0.977,2.565,1.568c-0.831,0.321-1.677,0.601-2.532,0.837
	c-0.337-0.406-0.684-0.807-1.026-1.207c-0.18-0.215-0.537-0.651-0.717-0.867C26.87,32.077,27.435,31.962,28.01,31.867z"/>
<path fill="#7C8B77" d="M51.099,33.575c4.37-1.548,9.072-0.566,13.414,0.591c-0.18,0.135-0.537,0.411-0.712,0.546
	C59.673,33.43,55.369,33.194,51.099,33.575z"/>
<path fill="#7F8E76" d="M42.317,36.776c1.539-2.224,4.265-2.62,6.688-2.795C46.796,34.972,44.54,35.829,42.317,36.776z"/>
<path fill="#55D0D2" d="M51.099,33.575c4.27-0.381,8.573-0.145,12.701,1.137c0.67,0.175,1.339,0.371,2.004,0.576
	c1.377,0.516,2.745,1.087,4.004,1.884c-0.228,0.19-0.684,0.571-0.912,0.761c-1.762-0.726-3.524-1.448-5.306-2.104
	c-0.465-0.17-0.931-0.326-1.401-0.471c-3.277-0.641-6.65-1.388-9.984-0.776c-3.529,0.496-6.859,1.894-10.336,2.645
	c0.114-0.115,0.337-0.336,0.446-0.451c2.223-0.947,4.479-1.803,6.688-2.795C49.703,33.85,50.401,33.715,51.099,33.575z"/>
<path fill="#676767" d="M38.417,34.076c0.413-0.421,1.539-0.05,1.002,0.636C38.911,35.704,37.168,34.797,38.417,34.076z"/>
<path fill="#EAE67A" d="M52.206,34.582c3.334-0.611,6.707,0.135,9.984,0.776c2.603,3.782,2.94,8.762,2.318,13.245
	c-1.235,4.534-4.009,8.401-5.372,12.895c0.256-3.161,0.636-6.302,1.064-9.443c0.755-4.854-2.707-8.922-5.98-11.803
	c-3.173-2.645-7.538-1.653-11.138-0.716c-4.014,1.117-8.45,4.208-8.697,8.997c-0.237,3.712-0.385,7.61,0.959,11.126
	c1.572,4.393,5.42,7.349,6.925,11.783c-0.024,0.25-0.071,0.751-0.095,1.002c-1.306-0.766-2.589-1.573-3.876-2.365
	c1.358,2.034,2.921,3.897,4.327,5.891c0.095,3.472,0.161,6.953-0.209,10.41c-0.465-0.356-0.917-0.731-1.344-1.127
	c0.879-6.237-2.323-12.093-6.308-16.407c-1.458,1.443-0.693,3.497-0.138,5.185c-0.784-0.656-2.114-1.072-2.099-2.329
	c-0.104-2.76-1.016-5.491-2.864-7.484c-0.56-0.671-0.822-1.538-1.083-2.37c0.389-0.867,0.822-1.733,0.997-2.68
	c0.47-2.565-0.199-5.36,1.026-7.745c0.836-1.673,1.458-3.457,2.289-5.125c2.194-3.502,5.401-6.057,8.331-8.822
	c0.161-0.06,0.484-0.185,0.646-0.25C45.347,36.475,48.677,35.078,52.206,34.582z"/>
<path fill="#151515" d="M4.213,34.356c-0.209,1.012-0.404,2.029-0.427,3.066c0.361,0.802,0.76,1.578,1.145,2.365
	c-0.689-0.656-1.672-1.212-1.81-2.279C3.131,36.35,3.781,35.373,4.213,34.356z"/>
<path fill="#EEBF71" d="M62.19,35.358c0.47,0.145,0.936,0.301,1.401,0.471c1.895,2.675,3.434,5.646,4.318,8.867
	c-0.936,4.318-3.453,7.99-5.32,11.898c-1.092,2.39-3.173,4.889-2.327,7.71c-0.47,0.466-0.997,0.867-1.506,1.292
	c0.109-1.368,0.209-2.735,0.38-4.098c1.363-4.494,4.137-8.361,5.372-12.895C65.13,44.12,64.793,39.14,62.19,35.358z"/>
<path fill="#EAE67A" d="M63.591,35.829c1.781,0.656,3.543,1.378,5.306,2.104c-0.019,0.526-0.043,1.057-0.076,1.583
	c-0.171,1.748-0.537,3.467-0.912,5.18C67.025,41.475,65.486,38.504,63.591,35.829z"/>
<path fill="#BEBEBE" d="M34.104,37.107c0.579,0.341,0.546,0.681-0.1,1.027C33.415,37.783,33.449,37.442,34.104,37.107z"/>
<path fill="#B2B2B2" d="M3.786,37.422c1.928,0.581,3.838,1.212,5.743,1.879c-0.404,0.12-1.211,0.361-1.615,0.486
	c1.672,0.436,3.349,0.857,5.04,1.212c2.213,0.787,4.465,1.488,6.802,1.688c1.681,0.266,3.32,0.721,4.949,1.227
	c0.01,0.25,0.024,0.751,0.033,0.997c-2.864-0.726-5.823-0.957-8.645-1.879c-3.045-0.987-6.118-1.859-9.186-2.745
	c-0.655-0.18-1.316-0.341-1.976-0.501C4.546,39,4.147,38.224,3.786,37.422z"/>
<path fill="#92926C" d="M34.346,42.552c1.354-2.41,3.52-4.263,6.161-4.824C38.379,39.226,36.417,40.969,34.346,42.552z"/>
<path fill="#55D0D2" d="M40.507,37.728c0.18-0.06,0.537-0.185,0.717-0.25c-2.931,2.765-6.137,5.32-8.331,8.822
	c-0.831,1.668-1.453,3.452-2.289,5.125c-1.225,2.385-0.556,5.18-1.026,7.745c-0.233-1.267-0.532-2.52-0.75-3.787
	c-0.005-0.336-0.01-1.012-0.014-1.353c0.456-1.423,0.907-2.845,1.23-4.313c0.755-1.543,1.468-3.106,2.199-4.664
	c0.693-0.842,1.411-1.663,2.104-2.5C36.417,40.969,38.379,39.226,40.507,37.728z"/>
<path fill="#90DDD0" d="M68.897,37.933c0.228-0.19,0.684-0.571,0.912-0.761c1.33,0.902,2.655,1.818,3.98,2.725
	c0.712,0.656,0.75,1.738,0.997,2.635c-0.299,0.165-0.898,0.486-1.197,0.646c-1.287-0.837-2.532-1.743-3.7-2.755
	c-0.356-0.306-0.712-0.606-1.069-0.907C68.854,38.99,68.878,38.459,68.897,37.933z"/>
<path fill="#FFFFFF" d="M43.081,39.536c3.6-0.937,7.965-1.929,11.138,0.716c3.273,2.881,6.735,6.948,5.98,11.803
	c-0.427,3.141-0.807,6.282-1.064,9.443c-0.171,1.363-0.271,2.73-0.38,4.098c-2.327,1.793-3.477,4.669-4.522,7.394
	c-2.014,4.744-4.208,9.829-8.474,12.78c-0.266-1.062-0.537-2.124-0.798-3.186c-0.18-2.039,0.033-4.123-0.451-6.122
	c-0.57-1.753-1.567-3.311-2.242-5.02c-1.506-4.434-5.353-7.389-6.925-11.783c-1.344-3.517-1.197-7.414-0.959-11.126
	C34.631,43.744,39.068,40.653,43.081,39.536z"/>
<path fill="#F9E6C9" d="M68.821,39.516c0.356,0.301,0.712,0.601,1.069,0.907c-0.18,4.343,0.057,9.163-2.555,12.83
	c-2.028,2.565-3.781,5.355-5.386,8.231c-0.575,0.932-1.102,1.894-1.686,2.82c-0.845-2.82,1.235-5.32,2.327-7.71
	c1.867-3.908,4.384-7.58,5.32-11.898C68.284,42.983,68.65,41.265,68.821,39.516z"/>
<path fill="#BFBFBF" d="M6.907,40.288c3.068,0.887,6.142,1.758,9.186,2.745c2.821,0.922,5.781,1.152,8.645,1.879l0.024,0.431
	c-0.603,0.837-1.249,1.638-1.976,2.36c-2.874-0.862-5.847-1.373-8.839-1.398c-0.484-0.045-0.945-0.175-1.387-0.386
	c-0.855-0.436-1.772-0.721-2.722-0.787c-0.803-0.105-1.596-0.271-2.394-0.416c-0.104-1.167-0.228-2.334-0.399-3.492
	C7.011,40.989,6.94,40.518,6.907,40.288z"/>
<path fill="#7F8247" d="M12.953,40.999c2.959-0.306,5.918,0.225,8.706,1.262c-0.636,0.15-1.268,0.301-1.905,0.426
	C17.418,42.487,15.167,41.786,12.953,40.999z"/>
<path fill="#EAE679" d="M69.889,40.423c1.168,1.012,2.413,1.919,3.7,2.755c0.366,2.515,0.228,5.165-1.012,7.409
	c-1.468,2.745-2.437,5.951-4.821,8.005c-0.066-1.783-0.114-3.582-0.423-5.34C69.946,49.586,69.709,44.766,69.889,40.423z"/>
<path fill="#8B8B8B" d="M7.044,41.224c0.171,1.157,0.294,2.324,0.399,3.492C6.261,43.84,6.332,42.422,7.044,41.224z"/>
<path fill="#F9F7D2" d="M74.787,42.532c0.081,0.451,0.166,0.897,0.214,1.353c0.024,2.35,0.095,4.729-0.285,7.059
	c-0.423,1.959-1.316,3.757-2.166,5.541c-0.632,1.012-1.506,1.849-1.995,2.956c-0.584,1.262-0.855,2.72-1.786,3.772
	c-2.37,2.5-2.855,6.122-3.99,9.298c-1.748,3.031-2.536,6.502-3.268,9.929c-0.432,2.029,0.19,4.313-0.955,6.147
	c0.033-0.24,0.109-0.726,0.147-0.967c-1.235,2.595-3.059,4.97-5.814,5.801c-0.926,0.115-1.862,0.13-2.793,0.185
	c1.653-1.237,3.249-2.545,4.859-3.842c1.064-0.847,2.204-1.859,2.38-3.346c0.489-3.381,0.399-6.828,0.921-10.21
	c0.56-3.276,1.24-6.613,2.874-9.508c1.325-2.36,2.403-4.854,3.724-7.219c0.133-0.135,0.399-0.416,0.532-0.556
	c0.09-0.08,0.275-0.245,0.37-0.331c2.384-2.054,3.353-5.26,4.821-8.005c1.24-2.244,1.377-4.894,1.012-7.409
	C73.889,43.018,74.487,42.697,74.787,42.532z"/>
<path fill="#595959" d="M28.409,43.739c0.727,0.01,0.532,1.227-0.109,1.217C27.568,44.952,27.763,43.724,28.409,43.739z"/>
<path fill="#B76F01" d="M74.715,50.943c0.38-2.329,0.309-4.709,0.285-7.059c2.156,4.208,0.651,9.403-2.451,12.599
	C73.4,54.7,74.293,52.902,74.715,50.943z"/>
<path fill="#969696" d="M9.837,45.132c0.95,0.065,1.867,0.351,2.722,0.787C11.789,46.665,10.141,46.194,9.837,45.132z"/>
<path fill="#7F8247" d="M30.043,49.716c0.009-1.859,0.936-3.437,2.199-4.664C31.511,46.61,30.798,48.173,30.043,49.716z"/>
<path fill="#A4A05D" d="M22.785,47.702c0.727-0.721,1.373-1.523,1.976-2.36c0.09,0.616,0.185,1.232,0.275,1.849
	c-0.337,3.472-0.418,7.018,0.432,10.42c-2.033-1.864-3.159-4.484-3.904-7.154c0.484-0.07,0.955-0.195,1.406-0.381
	c0-0.19-0.01-0.571-0.014-0.761c-0.242-0.401-0.499-0.797-0.755-1.187C22.348,48.023,22.643,47.807,22.785,47.702z"/>
<path fill="#111213" d="M13.946,46.304c2.992,0.025,5.966,0.536,8.839,1.398c-0.142,0.105-0.437,0.321-0.584,0.426
	c-0.418,0.12-0.845,0.21-1.273,0.286c-1.221-0.726-2.589-1.077-3.961-1.328C15.946,46.88,14.924,46.665,13.946,46.304z"/>
<path fill="#D5E2B0" d="M16.967,47.086c1.373,0.25,2.741,0.601,3.961,1.328c-0.855,0.155-1.719,0.291-2.57,0.481
	c-0.185,0.05-0.56,0.15-0.746,0.2c-0.76,0.636-1.292,2.024-2.408,1.889c-0.252-0.551-0.461-1.117-0.684-1.683
	c-0.85,0.556-1.691,1.117-2.522,1.698c-0.48-0.115-0.959-0.22-1.444-0.321c-0.062-0.671-0.119-1.338-0.18-2.004l-0.033-0.361
	c0.793,0.301,1.582,0.606,2.37,0.922c0.689-1.257,1.928-1.723,3.197-1.152C16.264,47.752,16.615,47.416,16.967,47.086z"/>
<path fill="#B76F01" d="M20.928,48.413c0.427-0.075,0.855-0.165,1.273-0.286c0.256,0.391,0.513,0.787,0.755,1.187
	c-1.069-0.601-1.045,1.127,0.014,0.761c-0.451,0.185-0.921,0.311-1.406,0.381c-0.988,0.15-1.981,0.266-2.959,0.466
	c-0.351-0.125-0.698-0.245-1.045-0.371c0.047-0.125,0.142-0.381,0.19-0.506c0.836-0.281,1.677-0.531,2.517-0.792
	c-0.636-0.13-1.273-0.261-1.909-0.361C19.209,48.704,20.073,48.569,20.928,48.413z"/>
<path fill="#DD981F" d="M17.613,49.095c0.185-0.05,0.56-0.15,0.746-0.2c0.636,0.1,1.273,0.23,1.909,0.361
	c-0.841,0.261-1.681,0.511-2.517,0.792C17.717,49.806,17.646,49.33,17.613,49.095z"/>
<path fill="#A3A52B" d="M9.334,50.958c-0.114-0.932,0.522-1.633,1.04-2.284c0.062,0.666,0.119,1.333,0.18,2.004
	c0.484,0.1,0.964,0.205,1.444,0.321c0.171,0.14,0.508,0.421,0.679,0.561C11.538,51.65,10.108,52.186,9.334,50.958z"/>
<path fill="#E4E598" d="M15.205,50.983c1.116,0.135,1.648-1.252,2.408-1.889c0.033,0.235,0.104,0.711,0.138,0.952
	c-0.047,0.125-0.142,0.381-0.19,0.506c0.347,0.125,0.693,0.245,1.045,0.371c0.09,0.291,0.271,0.867,0.361,1.152
	c0.499,0.095,1.805-0.521,1.696,0.215c-0.095,0.551-0.195,1.102-0.294,1.653c-0.228-0.16-0.456-0.321-0.684-0.476
	c-0.19,0.13-0.575,0.391-0.765,0.526c-1.734,0.671-3.515,1.242-5.339,1.558c-0.67,0.15-1.268-0.24-1.767-0.656
	c-0.071-1.162,0.665-2.204,0.864-3.336c-0.171-0.14-0.508-0.421-0.679-0.561c0.831-0.581,1.672-1.142,2.522-1.698
	C14.744,49.866,14.953,50.432,15.205,50.983z"/>
<path fill="#DED471" d="M22.971,50.076c-1.059,0.366-1.083-1.363-0.014-0.761C22.961,49.505,22.971,49.886,22.971,50.076z"/>
<path fill="#232218" d="M23.631,50.407c0.527-0.06,0.736,0.25,0.622,0.917l-0.114,0.396C23.469,52.05,23.165,50.778,23.631,50.407z"
	/>
<path fill="#767820" d="M13.01,50.412c1.306,0.691,2.669,1.252,4.109,1.568c-0.223,0.01-0.665,0.03-0.888,0.04
	c-0.489-0.01-0.974,0.005-1.458,0.045C13.908,52.11,13.575,50.938,13.01,50.412z"/>
<path fill="#646564" d="M25.474,51.299c0.679,0.075,0.793,0.396,0.342,0.972C25.132,52.196,25.023,51.87,25.474,51.299z"/>
<path fill="#E9E179" d="M24.253,51.324c0.366,1.292,0.408,2.65,0.237,3.983c-0.76-1.047-0.646-2.385-0.351-3.587L24.253,51.324z"/>
<path fill="#888C8B" d="M14.772,52.065c0.484-0.04,0.969-0.055,1.458-0.045C16.535,53.022,14.521,53.077,14.772,52.065z"/>
<path fill="#111215" d="M20.368,53.944c0.1-0.551,0.199-1.102,0.294-1.653c0.627,1.222,0.147,2.5-0.589,3.522
	C20.159,55.186,20.258,54.565,20.368,53.944z"/>
<path fill="#C7D453" d="M19.684,53.468c0.228,0.155,0.456,0.316,0.684,0.476c-0.109,0.621-0.209,1.242-0.294,1.869l-0.047,0.336
	c-1.425,0.361-2.954,0.736-4.322-0.06c0.898-0.085,1.795-0.125,2.698-0.17c-0.513-0.175-1.021-0.346-1.529-0.516
	c0.689-0.461,1.373-0.927,2.047-1.408C19.109,53.859,19.494,53.598,19.684,53.468z"/>
<path fill="#DDDA15" d="M13.328,53.413c1.149,0.05,2.299,0.105,3.448,0.185c-0.841,0.401-1.696,0.776-2.555,1.142
	C13.998,54.41,13.552,53.744,13.328,53.413z"/>
<path fill="#EEBF71" d="M61.948,61.483c1.605-2.876,3.358-5.666,5.386-8.231c0.309,1.758,0.356,3.557,0.423,5.34
	c-0.095,0.085-0.28,0.25-0.37,0.331C65.453,59.465,63.615,60.326,61.948,61.483z"/>
<path fill="#82805B" d="M28.604,59.409c-0.522-1.778-0.532-3.667,0.209-5.38c0.005,0.341,0.009,1.017,0.014,1.353
	C28.818,56.729,28.727,58.072,28.604,59.409z"/>
<path fill="#EA9901" d="M61.948,61.483c1.667-1.157,3.505-2.019,5.439-2.56c-0.133,0.14-0.399,0.421-0.532,0.556
	c-1.292,1.358-2.684,2.625-3.771,4.173c-1.23,1.738-2.076,3.722-3.087,5.596c-1.173,2.009-2.508,3.943-3.32,6.157
	c-1.121,3.046-1.577,6.302-2.546,9.398c-0.674,2.224-2.09,4.063-3.334,5.961c1.325-0.887,2.731-1.748,3.676-3.101
	c1.111-1.603,1.928-3.402,2.95-5.065c-0.399,1.798-0.879,3.617-1.871,5.165c-1.525,2.575-4.099,4.143-6.626,5.43
	c-2.598-0.095-5.192-0.271-7.785-0.371c0.807,0.501,1.62,1.002,2.451,1.458c-1.919-0.105-3.467-1.338-4.778-2.705
	c0.123-3.417-0.689-6.723-1.525-9.984c0.009-0.306,0.024-0.922,0.028-1.232c1.43,1.478,2.489,3.276,3.757,4.894
	c0.427,0.396,0.879,0.771,1.344,1.127c1.149,0.13,2.304-0.07,3.344-0.611c4.265-2.951,6.46-8.035,8.474-12.78
	c1.045-2.725,2.194-5.601,4.522-7.394c0.508-0.426,1.035-0.827,1.506-1.292C60.846,63.377,61.373,62.415,61.948,61.483z"/>
<path fill="#EEBF70" d="M63.083,63.653c1.088-1.548,2.479-2.815,3.771-4.173c-1.32,2.365-2.399,4.859-3.724,7.219
	c-1.634,2.896-2.313,6.232-2.874,9.508c0.028-0.225,0.09-0.676,0.123-0.902c-0.565,0.296-1.135,0.596-1.7,0.887
	c0.456-2.921,1.681-5.596,2.992-8.181c-0.565,0.406-1.13,0.807-1.677,1.237C61.007,67.375,61.853,65.391,63.083,63.653z"/>
<path fill="#EEBF71" d="M64.779,72.51c1.135-3.176,1.62-6.798,3.99-9.298C67.5,66.323,66.854,69.839,64.779,72.51z"/>
<path fill="#B76F01" d="M29.663,64.219c1.848,1.994,2.76,4.724,2.864,7.484C31.725,69.138,30.76,66.653,29.663,64.219z"/>
<path fill="#B76F01" d="M59.996,69.248c0.546-0.431,1.111-0.832,1.677-1.237c-1.311,2.585-2.536,5.26-2.992,8.181
	c-0.798,4.504,0.019,9.248-1.724,13.571c-1.61,1.297-3.206,2.605-4.859,3.842c-2.475,2.019-5.747,0.912-8.602,1.197
	c-1.396,0.235-2.703-0.406-3.923-1.032c-0.413-0.661-0.551-1.453-0.76-2.194c1.311,1.368,2.859,2.6,4.778,2.705
	c1.843,0.356,3.695-0.215,5.334-1.087c2.527-1.287,5.101-2.855,6.626-5.43c0.993-1.548,1.472-3.366,1.871-5.165
	c-1.021,1.663-1.838,3.462-2.95,5.065c-0.945,1.353-2.351,2.214-3.676,3.101c1.244-1.899,2.66-3.737,3.334-5.961
	c0.969-3.096,1.425-6.352,2.546-9.398C57.488,73.191,58.822,71.257,59.996,69.248z"/>
<path fill="#EEBF71" d="M34.627,74.032c-0.556-1.688-1.32-3.742,0.138-5.185c3.985,4.313,7.187,10.17,6.308,16.407
	c-1.268-1.618-2.327-3.417-3.757-4.894c-0.005,0.311-0.019,0.927-0.028,1.232C36.303,79.112,35.638,76.502,34.627,74.032z"/>
<path fill="#EDBC6D" d="M38.298,70.08c1.287,0.792,2.57,1.598,3.876,2.365c0.024-0.25,0.071-0.751,0.095-1.002
	c0.674,1.708,1.672,3.266,2.242,5.02c0.484,1.999,0.271,4.083,0.451,6.122c-0.698-2.234-1.24-4.549-2.337-6.613
	C41.219,73.977,39.657,72.114,38.298,70.08z"/>
<path fill="#E99703" d="M58.68,76.192c0.565-0.291,1.135-0.591,1.7-0.887c-0.033,0.225-0.095,0.676-0.123,0.902
	c-0.522,3.381-0.432,6.828-0.921,10.21c-0.176,1.488-1.316,2.5-2.38,3.346C58.699,85.439,57.882,80.695,58.68,76.192z"/>
<path fill="#FEFEFE" d="M42.625,75.971c1.097,2.064,1.639,4.378,2.337,6.613c0.261,1.062,0.532,2.124,0.798,3.186
	c-1.04,0.541-2.194,0.741-3.344,0.611C42.787,82.925,42.72,79.443,42.625,75.971z"/>
<path fill="#B76F01" d="M54.889,93.42c2.755-0.832,4.579-3.206,5.814-5.801c-0.038,0.24-0.114,0.726-0.147,0.967
	C59.877,91.241,57.611,93.545,54.889,93.42z"/>
<path fill="#EEBB66" d="M41.139,92.824c2.593,0.1,5.187,0.276,7.785,0.371c-1.639,0.872-3.491,1.443-5.334,1.087
	C42.758,93.825,41.946,93.325,41.139,92.824z"/>
<path fill="#111213" d="M35.391,100.598c-0.385-1.523,0.266-3.021,0.651-4.464c-0.014,1.177-0.071,2.36,0.009,3.537
	c0.199,1.077,0.869,1.979,1.225,3.001c-0.081,0.13-0.242,0.386-0.318,0.516C36.422,102.337,35.752,101.555,35.391,100.598z"/>
<path fill="#E9E179" d="M38.678,97.808c6.056-0.491,12.359-2.82,18.296-0.321c1.468,0.872,3.51,1.343,4.142,3.181
	c-2.275-1.212-4.783-1.548-7.3-1.242c-1.553-0.005-3.111-0.005-4.669,0.105c2.256-0.561,4.555-0.882,6.845-1.197
	c-1.981-0.867-4.123-1.478-6.284-1.182c-2.988,0.361-5.918,1.087-8.901,1.493C40.084,98.399,39.381,98.099,38.678,97.808z"/>
<path fill="#EA9802" d="M40.806,98.645c2.983-0.406,5.914-1.132,8.901-1.493c2.161-0.296,4.303,0.316,6.284,1.182
	c-2.289,0.316-4.588,0.636-6.845,1.197c-3.311,0.847-6.83,0.651-10.074-0.431C39.647,98.925,40.227,98.775,40.806,98.645z"/>
<path fill="#111213" d="M61.235,96.776c0.874,1.403,1.558,3.086,1.297,4.799c-0.347,1.202-1.154,2.169-1.833,3.181
	C61.72,102.217,61.501,99.446,61.235,96.776z"/>
<path fill="#BEBFC0" d="M37.705,98.419c0.451,0.235,0.898,0.486,1.368,0.681c3.244,1.082,6.764,1.277,10.074,0.431
	c1.558-0.11,3.116-0.11,4.669-0.105c1.506,0.571,2.845,1.538,4.033,2.655c-5.548-0.927-11.252-0.997-16.729,0.446
	c-1.335-0.501-2.555-1.277-3.8-1.989C37.448,99.827,37.576,99.121,37.705,98.419z"/>
<path fill="#7F7F7F" d="M41.12,102.527c5.477-1.443,11.181-1.373,16.729-0.446c0.594,0.15,1.183,0.331,1.762,0.546
	c-1.867,0.736-3.857,0.967-5.776,1.488c-2.95-0.24-5.928-0.331-8.873,0.005c-0.199,0.005-0.598,0.015-0.798,0.02
	c-1.415-0.341-2.817-0.751-4.227-1.102C40.231,102.913,40.82,102.657,41.12,102.527z"/>
<path fill="#EBE677" d="M37.277,102.672c0.883,0.125,1.776,0.195,2.66,0.366c1.411,0.351,2.812,0.761,4.227,1.102
	c-1.757,0.351-3.529,0.631-5.315,0.812c-0.19-0.05-0.575-0.15-0.765-0.2l-0.271-0.07c-0.684,1.037-1.401,2.049-2.156,3.031
	c-0.171-1.538,0.142-3.046,1.116-4.233l0.185-0.291C37.035,103.058,37.196,102.803,37.277,102.672z"/>
<path fill="#151515" d="M35.387,109.37c-0.75-2.054-0.256-4.489,1.387-5.891c-0.974,1.187-1.287,2.695-1.116,4.233
	C35.691,108.283,35.562,108.839,35.387,109.37z"/>
<path fill="#151515" d="M44.962,104.12c2.945-0.336,5.923-0.245,8.873-0.005c1.824,0.326,3.672,0.481,5.491,0.837
	c-0.337,0.04-1.007,0.11-1.344,0.15c-4.023,0.12-7.975-0.902-11.998-0.932C45.732,104.155,45.219,104.13,44.962,104.12z"/>
<path fill="#F8F8F0" d="M38.849,104.952c1.786-0.18,3.558-0.461,5.315-0.812c0.199-0.005,0.598-0.015,0.798-0.02
	c0.256,0.01,0.769,0.035,1.021,0.05c-1.624,0.711-3.235,1.573-5.006,1.783C40.132,106.124,39.533,105.323,38.849,104.952z"/>
<path fill="#BEBEBF" d="M45.984,104.17c4.023,0.03,7.975,1.052,11.998,0.932l-0.399,0.321c-1.254,0.175-2.513,0.306-3.771,0.461
	c1.301,0.416,2.622,0.766,3.938,1.132c1.197,1.092,2.441,2.124,3.857,2.886c-0.556,0.571-1.121,1.122-1.662,1.703l-0.209-0.396
	c-0.114-0.23-0.351-0.686-0.47-0.912c-4.465-1.613-9.234-3.732-13.998-2.104c2.912,0.817,5.885,1.358,8.749,2.339
	c-0.185,0.065-0.556,0.2-0.741,0.266c-4.384-0.736-8.659-2.209-13.119-2.465c-1.477-0.406-2.199-2.059-2.071-3.582
	c0.19,0.05,0.575,0.15,0.765,0.2c0.684,0.371,1.282,1.172,2.128,1.002C42.749,105.743,44.359,104.882,45.984,104.17z"/>
<path fill="#111213" d="M62.442,104.476c1.373,1.308,2.166,3.712,0.57,5.21c-0.993,0.877-2.137,1.528-3.282,2.154l0.214-0.235
	c0.541-0.581,1.107-1.132,1.662-1.703C63.301,108.624,63.145,106.299,62.442,104.476z"/>
<path fill="#EA9901" d="M53.811,105.884c1.259-0.155,2.517-0.286,3.771-0.461c1.202,0.331,2.346,0.922,3.144,1.959
	c-0.997-0.065-1.995-0.17-2.978-0.366C56.433,106.65,55.113,106.299,53.811,105.884z"/>
<path fill="#111213" d="M36.973,115.607c-2.997-1.979-1.686-6.778,1.183-8.121c-0.328,0.501-0.67,0.987-0.988,1.498
	C35.719,110.923,36.047,113.508,36.973,115.607z"/>
<path fill="#7E7E7E" d="M45.266,108.193c4.764-1.628,9.533,0.491,13.998,2.104c0.119,0.225,0.356,0.681,0.47,0.912
	c-0.741,0.11-1.472,0.271-2.213,0.346c-1.415-0.25-2.831-0.501-4.246-0.756c0.185-0.065,0.556-0.2,0.741-0.266
	C51.151,109.551,48.178,109.01,45.266,108.193z"/>
<path fill="#111213" d="M40.156,108.333c4.46,0.255,8.735,1.728,13.119,2.465c1.415,0.255,2.831,0.506,4.246,0.756
	c-0.261,0.04-0.784,0.13-1.05,0.17c-1.582,0.05-3.168-0.01-4.755-0.05C47.784,110.928,43.922,109.736,40.156,108.333z"/>
<path fill="#BEBEBE" d="M36.973,115.607c-0.926-2.099-1.254-4.684,0.195-6.623c0.123,0.205,0.366,0.616,0.484,0.822
	c0.247,0.421,0.494,0.847,0.736,1.272c0.513,0.731,0.717,2.119,1.833,1.964c3.866,0.065,7.623-1.277,11.495-1.368
	c1.586,0.04,3.173,0.1,4.755,0.05c-0.665,0.235-1.33,0.461-2,0.686c1.867,0.12,3.705,0.616,5.272,1.718
	c-5.51-0.496-11.105,0.045-16.491,1.323c-0.328,0.04-0.983,0.125-1.306,0.17c-0.717-0.01-1.43,0.08-2.133,0.235
	C38.859,115.973,37.914,115.743,36.973,115.607z"/>
<path fill="#E99402" d="M37.652,109.806c2.945,0.802,5.966,1.067,8.996,1.017c-2.389,1.788-5.833,2.179-8.26,0.256
	C38.146,110.653,37.899,110.227,37.652,109.806z"/>
<path fill="#CCCCCC" d="M59.73,111.84c1.145-0.626,2.289-1.277,3.282-2.154c0.237,0.411,0.494,0.822,0.689,1.262
	c0,0.185,0,0.561,0,0.746c-0.503,0.701-1.092,1.333-1.662,1.979c-1.178-0.336-2.356-0.691-3.51-1.112
	C58.922,112.311,59.326,112.071,59.73,111.84z"/>
<path fill="#151515" d="M63.7,111.695c0-0.185,0-0.561,0-0.746c0.689,1.032,1.263,2.385,0.171,3.341
	C63.795,113.423,63.71,112.561,63.7,111.695z"/>
<path fill="#7E7E7E" d="M43.252,115.452c5.386-1.277,10.982-1.818,16.491-1.323c1.016,0.17,2.009,0.471,3.002,0.756
	c0.052,0.281,0.157,0.832,0.209,1.107c-2.674,0.271-5.358-0.165-8.022,0.24C51.023,116.684,47.114,116.033,43.252,115.452z"/>
<path fill="#909090" d="M39.814,115.858c0.703-0.155,1.415-0.245,2.133-0.235C41.975,116.649,40.184,116.654,39.814,115.858z"/>
</svg>
