<?xml version="1.0" standalone="no"?>
<!DOCTYPE svg PUBLIC "-//W3C//DTD SVG 20010904//EN"
 "http://www.w3.org/TR/2001/REC-SVG-20010904/DTD/svg10.dtd">
<svg version="1.0" xmlns="http://www.w3.org/2000/svg"
 width="127.000000pt" height="127.000000pt" viewBox="0 0 127.000000 127.000000"
 preserveAspectRatio="xMidYMid meet">
<metadata>
Created by potrace 1.11, written by Peter Selinger 2001-2013
</metadata>
<g transform="translate(0.000000,127.000000) scale(0.100000,-0.100000)"
fill="#000000" stroke="none">
<path d="M259 1118 c-1 -18 -1 -910 0 -925 1 -9 21 -13 64 -13 l63 0 -1 225
c0 143 4 225 10 226 12 1 388 0 428 0 l27 -1 0 -225 0 -225 65 0 65 0 0 475 0
475 -65 0 -65 0 0 -195 0 -195 -229 0 c-174 0 -230 3 -233 13 -2 6 -3 94 -3
195 l1 182 -63 0 c-43 0 -63 -4 -64 -12z"/>
</g>
</svg>
